<svg xmlns="http://www.w3.org/2000/svg" viewBox="0 0 100 100">
  <defs>
    <radialGradient id="ballGrad" cx="38%" cy="33%" r="68%">
      <stop offset="0%" stop-color="#ffffff"/>
      <stop offset="38%" stop-color="#eef2f6"/>
      <stop offset="100%" stop-color="#8ea4b4"/>
    </radialGradient>
    <radialGradient id="specular" cx="50%" cy="50%" r="50%">
      <stop offset="0%" stop-color="white" stop-opacity="0.85"/>
      <stop offset="100%" stop-color="white" stop-opacity="0"/>
    </radialGradient>
    <clipPath id="ballClip">
      <circle cx="50" cy="50" r="42"/>
    </clipPath>
  </defs>

  <rect width="100" height="100" rx="22" ry="22" fill="#0b0d10"/>
  <circle cx="50" cy="50" r="42" fill="url(#ballGrad)"/>

  <!-- Outer pentagons — shaded by light source (upper-left) -->
  <polygon points="62.10,33.35 58.97,23.72 67.16,17.77 75.35,23.72 72.22,33.35" fill="#18202a"/>
  <polygon points="69.57,56.36 77.76,50.41 85.95,56.36 82.82,65.99 72.70,65.99" fill="#0e1318"/>
  <polygon points="50.00,70.58 58.19,76.53 55.06,86.16 44.94,86.16 41.81,76.53" fill="#090c0f"/>
  <polygon points="30.43,56.36 27.30,65.99 17.18,65.99 14.05,56.36 22.24,50.41" fill="#0e1318"/>
  <polygon points="37.90,33.35 27.78,33.35 24.65,23.72 32.84,17.77 41.03,23.72" fill="#1e2a38"/>

  <!-- Center pentagon (neon green) -->
  <polygon points="50.00,36.77 62.58,45.91 57.78,60.70 42.22,60.70 37.42,45.91" fill="#c6ff3d"/>

  <!-- Inner hexagon seams (surrounding center pentagon) -->
  <polygon points="50.00,27.11 50.00,36.77 62.58,45.91 71.77,42.93 72.22,33.35 62.10,33.35" fill="none" stroke="#12161b" stroke-width="1.8" stroke-linejoin="round"/>
  <polygon points="71.77,42.93 62.58,45.91 57.78,60.70 63.45,68.52 72.70,65.99 69.57,56.36" fill="none" stroke="#12161b" stroke-width="1.8" stroke-linejoin="round"/>
  <polygon points="63.45,68.52 57.78,60.70 42.22,60.70 36.55,68.52 41.81,76.53 50.00,70.58" fill="none" stroke="#12161b" stroke-width="1.8" stroke-linejoin="round"/>
  <polygon points="36.55,68.52 42.22,60.70 37.42,45.91 28.23,42.93 22.24,50.41 30.43,56.36" fill="none" stroke="#12161b" stroke-width="1.8" stroke-linejoin="round"/>
  <polygon points="28.23,42.93 37.42,45.91 50.00,36.77 50.00,27.11 41.03,23.72 37.90,33.35" fill="none" stroke="#12161b" stroke-width="1.8" stroke-linejoin="round"/>

  <!-- Bridge hexagons (between adjacent outer pentagons, clipped to ball) -->
  <polygon clip-path="url(#ballClip)" points="71.77,42.93 72.22,33.35 75.35,23.72 87.70,31.70 77.76,50.41 69.57,56.36" fill="none" stroke="#12161b" stroke-width="1.8" stroke-linejoin="round"/>
  <polygon clip-path="url(#ballClip)" points="63.45,68.52 72.70,65.99 82.82,65.99 79.20,80.20 58.19,76.53 50.00,70.58" fill="none" stroke="#12161b" stroke-width="1.8" stroke-linejoin="round"/>
  <polygon clip-path="url(#ballClip)" points="36.55,68.52 41.81,76.53 44.94,86.16 30.26,86.97 27.30,65.99 30.43,56.36" fill="none" stroke="#12161b" stroke-width="1.8" stroke-linejoin="round"/>
  <polygon clip-path="url(#ballClip)" points="28.23,42.93 22.24,50.41 14.05,56.36 8.74,42.65 27.78,33.35 37.90,33.35" fill="none" stroke="#12161b" stroke-width="1.8" stroke-linejoin="round"/>
  <polygon clip-path="url(#ballClip)" points="50.00,27.11 41.03,23.72 32.84,17.77 44.25,8.49 58.97,23.72 62.10,33.35" fill="none" stroke="#12161b" stroke-width="1.8" stroke-linejoin="round"/>

  <!-- Pentagon outlines -->
  <polygon points="62.10,33.35 58.97,23.72 67.16,17.77 75.35,23.72 72.22,33.35" fill="none" stroke="#12161b" stroke-width="1.8" stroke-linejoin="round"/>
  <polygon points="69.57,56.36 77.76,50.41 85.95,56.36 82.82,65.99 72.70,65.99" fill="none" stroke="#12161b" stroke-width="1.8" stroke-linejoin="round"/>
  <polygon points="50.00,70.58 58.19,76.53 55.06,86.16 44.94,86.16 41.81,76.53" fill="none" stroke="#12161b" stroke-width="1.8" stroke-linejoin="round"/>
  <polygon points="30.43,56.36 27.30,65.99 17.18,65.99 14.05,56.36 22.24,50.41" fill="none" stroke="#12161b" stroke-width="1.8" stroke-linejoin="round"/>
  <polygon points="37.90,33.35 27.78,33.35 24.65,23.72 32.84,17.77 41.03,23.72" fill="none" stroke="#12161b" stroke-width="1.8" stroke-linejoin="round"/>
  <polygon points="50.00,36.77 62.58,45.91 57.78,60.70 42.22,60.70 37.42,45.91" fill="none" stroke="#12161b" stroke-width="1.8" stroke-linejoin="round"/>

  <!-- Specular highlight -->
  <ellipse cx="37" cy="30" rx="10" ry="6.5" fill="url(#specular)" clip-path="url(#ballClip)" transform="rotate(-30 37 30)"/>

  <!-- Ball outline -->
  <circle cx="50" cy="50" r="42" fill="none" stroke="#12161b" stroke-width="1.8"/>
</svg>
